<?xml version="1.0" encoding="UTF-8"?>
<svg id="a" data-name="︿︿" xmlns="http://www.w3.org/2000/svg" viewBox="0 0 850.1 579.57">
  <defs>
    <style>
      .b {
        fill: #fff;
      }
    </style>
  </defs>
  <path class="b" d="M490.69,240.9c-1.45-.59-3.05-.68-4.56-.28l-34.51,9.23-.97-6.9c-.08-.65-.67-1.16-1.31-1.16h-11.05v-7.15h-28.56l-7.74,8.72h2.8l-2.99,6.48-33.48-9.22c-1.51-.4-3.11-.31-4.56.28l-50.06,20.25,9.93,9.87s.4.37,1.08.6c.65.22,1.44,0,1.44,0l40.77-16.48,38.98,11.11v-3.2c0-.4.33-.73.73-.73h8.04v-17.53c0-.4.33-.73.73-.73h5.94c.4,0,.73.33.73.73v23.96c0,.4-.33.73-.73.73h-5.94s-2.1,0-2.1,0v44c0,.4-.33.73-.73.73h-5.94c-.4,0-.73-.32-.73-.73v-18.2l-19.03-5.95s.56,18.08,6.45,26.91c5.89,8.83,12.47,9.25,18.22,13.46,5.75,4.2,6.03,13.59,15.7,13.59h.06c9.67,0,9.95-9.39,15.7-13.59,5.75-4.21,12.33-4.63,18.22-13.46,5.89-8.83,6.44-26.91,6.44-26.91l-19.13,5.97v17.98c0,.4-.33.73-.73.73h-5.95c-.4,0-.73-.33-.73-.73v-9.93h-10.03v9.93c0,.4-.33.73-.73.73h-5.94c-.4,0-.73-.33-.73-.73v-31.71c0-.4.33-.73.73-.73h23.38c.4,0,.73.33.73.73v8.17l38.85-11.1,22.79,9.95s.77.34,1.89.11c1.06-.22,1.92-1.01,1.92-1.01l11.54-11.5-34.05-14.81c-1.86-.81-3.94-.94-5.89-.38l-37.23,11.33v6.1c0,.42-.34.77-.77.77h-23.12c-.42,0-.77-.34-.77-.77v-6.27c0-.42.34-.77.77-.77h7.61v-1.62h-7.61c-.42,0-.77-.34-.77-.77v-6.27c0-.43.34-.77.77-.77h7.61v-1.46h-5.26v-.03h-2.54c-.4,0-.73-.33-.73-.73v-14.95c0-.4.33-.73.73-.73h5.95c.4,0,.73.33.73.73v8.28h1.13v-8.28c0-.4.33-.73.73-.73h5.94c.4,0,.73.33.73.73v8.28h1.29v-8.28c0-.4.33-.73.73-.73h5.95c.4,0,.73.33.73.73v14.95c0,.4-.33.73-.73.73h-1.83v.03h-6.13v1.46h8.11c.42,0,.77.34.77.77v3.59l39.17-11.16,40.76,16.48s.79.22,1.44,0c.69-.23,1.08-.6,1.08-.6l9.93-9.87-50.06-20.25ZM413.33,259.89c0,.41-.33.73-.73.73h-5.94c-.4,0-.73-.32-.73-.73v-15.11c0-.4.33-.73.73-.73h5.94c.4,0,.73.33.73.73v15.11ZM422.1,313.31c0,.4-.33.73-.73.73h-5.94c-.4,0-.73-.33-.73-.73v-41.49c0-.4.33-.73.73-.73h5.94c.4,0,.73.33.73.73v41.49Z"/>
  <path class="b" d="M405.93,272.25l-37.04-11.27c-1.95-.56-4.03-.42-5.89.38l-34.06,14.81,11.54,11.5s.86.79,1.92,1.01c1.12.24,1.89-.11,1.89-.11l22.79-9.95,38.84,11.1v-17.48Z"/>
  <rect class="b" x="439.48" y="269.75" width="8.02" height="1.62"/>
  <rect class="b" x="431.09" y="288.58" width="1.29" height="7.91"/>
  <rect class="b" x="439.78" y="288.58" width="1.34" height="7.91"/>
</svg>