<?xml version="1.0" encoding="UTF-8"?>
<svg xmlns="http://www.w3.org/2000/svg" version="1.1" viewBox="0 0 850.1 579.57">
  <!-- Generator: Adobe Illustrator 30.2.1, SVG Export Plug-In . SVG Version: 2.1.1 Build 1)  -->
  <defs>
    <style>
      .st0 {
        fill: #fff;
      }

      .st1 {
        opacity: .99;
      }
    </style>
  </defs>
  <g id="a" class="st1">
    <rect class="st0" x="471.32" y="288.37" width="4.94" height="29.15"/>
    <path class="st0" d="M658.95,112.64c-5.34-2.17-11.24-2.51-16.81-1.03l-127.19,34.02-3.57-25.43c-.29-2.4-2.47-4.28-4.83-4.28h-40.73v-26.35h-105.26l-28.53,32.14h10.32l-11.02,23.88-123.39-33.98c-5.57-1.47-11.46-1.14-16.81,1.03L6.65,187.27l36.6,36.38s1.47,1.36,3.98,2.21c2.4.81,5.31,0,5.31,0l150.26-60.74,143.66,40.95v-11.79c0-1.47,1.22-2.69,2.69-2.69h29.63v-64.61c0-1.47,1.22-2.69,2.69-2.69h21.89c1.47,0,2.69,1.22,2.69,2.69v88.31c0,1.47-1.22,2.69-2.69,2.69h-29.63v162.16c0,1.47-1.22,2.69-2.69,2.69h-21.89c-1.47,0-2.69-1.18-2.69-2.69v-67.08l-70.14-21.93s2.06,66.63,23.77,99.18c21.71,32.54,45.96,34.09,67.15,49.61,21.19,15.48,22.22,50.09,57.86,50.09h.22c35.64,0,36.67-34.61,57.86-50.09,21.19-15.52,45.44-17.06,67.15-49.61s23.73-99.18,23.73-99.18l-70.5,22v66.27c0,1.47-1.22,2.69-2.69,2.69h-21.93c-1.47,0-2.69-1.22-2.69-2.69v-36.6h-36.97v36.6c0,1.47-1.22,2.69-2.69,2.69h-21.89c-1.47,0-2.69-1.22-2.69-2.69v-116.87c0-1.47,1.22-2.69,2.69-2.69h86.17c1.47,0,2.69,1.22,2.69,2.69v30.11l143.18-40.91,83.99,36.67s2.84,1.25,6.97.41c3.91-.81,7.08-3.72,7.08-3.72l42.53-42.38-125.49-54.58c-6.86-2.99-14.52-3.46-21.71-1.4l-137.21,41.76v22.48c0,1.55-1.25,2.84-2.84,2.84h-85.21c-1.55,0-2.84-1.25-2.84-2.84v-23.11c0-1.55,1.25-2.84,2.84-2.84h28.05v-5.97h-28.05c-1.55,0-2.84-1.25-2.84-2.84v-23.11c0-1.58,1.25-2.84,2.84-2.84h28.05v-5.38h-19.39v-.11h-9.36c-1.47,0-2.69-1.22-2.69-2.69v-55.1c0-1.47,1.22-2.69,2.69-2.69h21.93c1.47,0,2.69,1.22,2.69,2.69v30.52h4.16v-30.52c0-1.47,1.22-2.69,2.69-2.69h21.89c1.47,0,2.69,1.22,2.69,2.69v30.52h4.75v-30.52c0-1.47,1.22-2.69,2.69-2.69h21.93c1.47,0,2.69,1.22,2.69,2.69v55.1c0,1.47-1.22,2.69-2.69,2.69h-6.74v.11h-22.59v5.38h29.89c1.55,0,2.84,1.25,2.84,2.84v13.23l144.36-41.13,150.22,60.74s2.91.81,5.31,0c2.54-.85,3.98-2.21,3.98-2.21l36.6-36.38-184.5-74.63v-.07ZM373.84,182.63c0,1.51-1.22,2.69-2.69,2.69h-21.89c-1.47,0-2.69-1.18-2.69-2.69v-55.69c0-1.47,1.22-2.69,2.69-2.69h21.89c1.47,0,2.69,1.22,2.69,2.69v55.69ZM406.16,379.51c0,1.47-1.22,2.69-2.69,2.69h-21.89c-1.47,0-2.69-1.22-2.69-2.69v-152.91c0-1.47,1.22-2.69,2.69-2.69h21.89c1.47,0,2.69,1.22,2.69,2.69v152.91Z"/>
    <path class="st0" d="M346.57,228.18l-136.51-41.54c-7.19-2.06-14.85-1.55-21.71,1.4l-125.53,54.58,42.53,42.38s3.17,2.91,7.08,3.72c4.13.88,6.97-.41,6.97-.41l83.99-36.67,143.15,40.91v-64.42l.04.04Z"/>
    <rect class="st0" x="470.22" y="218.97" width="29.56" height="5.97"/>
    <rect class="st0" x="439.29" y="288.37" width="4.75" height="29.15"/>
  </g>
</svg>