<svg id="x" data-name="Layer_1" xmlns="http://www.w3.org/2000/svg" viewBox="0 0 1345.5 1079.34"><defs><style>.cls-1{fill:#fff;stroke:#fff;stroke-linecap:round;stroke-linejoin:round;stroke-width:5px;}</style></defs><polygon class="cls-1" points="1143.26 216.55 770.56 216.55 834.39 145.2 1207.09 145.2 1143.26 216.55"/><polygon class="cls-1" points="1343 1076.84 1145.32 1076.84 762.32 646.7 385.5 646.7 449.33 575.35 900.28 575.35 1343 1076.84"/><polygon class="cls-1" points="66.34 1005.49 443.16 1005.49 379.32 1076.84 2.5 1076.84 66.34 1005.49"/><polygon class="cls-1" points="459.63 503.99 8.68 2.5 194 2.5 577 432.64 951.76 432.64 889.99 503.99 459.63 503.99"/><polygon class="cls-1" points="729.38 718.05 1048.54 1076.84 968.24 1076.84 673.78 746.59 634.66 789.4 257.84 789.4 321.67 718.05 729.38 718.05"/><polygon class="cls-1" points="609.95 359.25 290.78 2.5 383.44 2.5 673.78 326.64 706.73 287.9 1079.43 287.9 1015.59 359.25 609.95 359.25"/><polygon class="cls-1" points="194 860.75 570.82 860.75 506.99 934.14 130.17 934.14 194 860.75"/><polygon class="cls-1" points="1270.93 73.85 898.22 73.85 962.06 2.5 1334.76 2.5 1270.93 73.85"/></svg>